<svg version="1.1" id="Layer_1" xmlns="http://www.w3.org/2000/svg" xmlns:xlink="http://www.w3.org/1999/xlink" x="0px" y="0px"
	 width="100%" viewBox="0 0 500 500" enable-background="new 0 0 500 500" xml:space="preserve">
<path fill="#000000" opacity="1.000000" stroke="none" 
	d="
M332.000000,501.000000 
	C221.333359,501.000000 111.166718,501.000000 1.000059,501.000000 
	C1.000039,334.333405 1.000039,167.666794 1.000020,1.000149 
	C167.666565,1.000099 334.333130,1.000099 500.999756,1.000050 
	C500.999847,167.666519 500.999847,334.333038 500.999939,500.999786 
	C444.833344,501.000000 388.666656,501.000000 332.000000,501.000000 
M381.023346,173.021851 
	C381.023346,173.021851 381.023468,173.092804 381.563843,172.958191 
	C381.740540,172.646942 381.917236,172.335693 382.023285,172.028351 
	C382.023285,172.028351 382.054840,172.091675 382.737885,171.852280 
	C384.032135,170.223999 385.326416,168.595734 387.239288,166.189163 
	C379.657288,166.189163 373.568939,166.189163 366.567657,166.010437 
	C364.765381,166.010437 362.963135,166.010437 360.286469,166.010437 
	C363.042206,157.769135 365.576904,150.188980 368.280853,142.102585 
	C359.231201,141.402527 352.377533,146.914413 344.441345,148.760132 
	C343.917450,140.716034 343.391724,132.643875 342.865997,124.571724 
	C342.345642,124.295853 341.825287,124.019974 341.304932,123.744102 
	C335.263275,129.305542 329.221588,134.866974 323.060120,140.538696 
	C319.178528,132.560699 315.625732,125.258408 311.479004,116.735382 
	C307.329163,125.486183 303.889282,132.739914 300.070587,140.792374 
	C293.531860,134.815674 287.312225,129.130630 281.092560,123.445580 
	C280.687225,123.796700 280.281860,124.147827 279.876526,124.498955 
	C279.876526,132.614365 279.876526,140.729782 279.876526,149.802719 
	C271.325745,146.785492 263.365967,143.976807 254.442429,140.828049 
	C257.466827,149.162506 260.261841,156.864807 263.212799,164.996841 
	C254.411743,165.490250 246.273712,165.946487 236.894897,166.472275 
	C243.064713,173.489456 248.628937,179.817871 254.123642,186.067230 
	C246.538452,189.845352 239.305115,193.448227 230.766357,197.701324 
	C239.038483,201.557724 246.512222,205.041916 254.501556,208.766479 
	C251.058533,212.711288 247.817078,216.425171 243.799500,220.063889 
	C241.901855,220.375641 240.004669,220.956802 238.106522,220.959885 
	C185.383377,221.045410 132.660141,221.072296 79.128632,220.932999 
	C77.476891,220.927185 75.825157,220.921387 73.800781,220.267960 
	C72.258286,221.168762 70.715797,222.069565 69.261955,223.681198 
	C69.219101,228.105057 68.325211,232.188034 72.378731,236.194138 
	C107.595627,270.998779 142.514771,306.104645 177.567383,341.075897 
	C178.768402,342.274139 180.442154,342.998535 182.851044,344.024628 
	C194.576660,344.008850 206.302292,343.993103 218.039139,344.917450 
	C218.030106,352.209930 218.021072,359.502441 217.089005,366.976959 
	C209.884842,366.985138 202.678375,366.903595 195.478806,367.089661 
	C194.277359,367.120728 193.105988,368.315247 191.996948,368.971069 
	C191.996948,368.971069 191.928574,368.937195 191.459671,369.114990 
	C191.615494,369.478241 191.771317,369.841492 191.980606,370.647858 
	C191.980606,370.647858 192.136902,371.065948 192.054062,371.672577 
	C192.027466,372.079865 192.000870,372.487122 191.206589,373.269531 
	C189.464615,373.513367 187.723022,373.966309 185.980591,373.969604 
	C160.954575,374.016998 135.928375,373.985138 110.902420,374.047089 
	C109.224464,374.051239 107.547997,374.655121 105.225121,375.342316 
	C103.459175,378.390839 103.073219,381.333649 106.263657,384.687286 
	C108.867188,384.767334 111.470711,384.847412 114.458282,385.054962 
	C114.458282,385.054962 114.857246,384.987396 115.280266,385.775055 
	C137.900497,385.848114 160.520721,385.929840 183.141022,385.951813 
	C183.807602,385.952454 184.474823,385.323792 185.541092,385.054810 
	C185.541092,385.054810 185.925110,384.926788 186.879639,384.985443 
	C226.276627,384.965881 265.673615,384.946320 305.456726,385.054565 
	C305.456726,385.054565 305.857849,384.987579 306.280609,385.775330 
	C323.567810,385.848297 340.855042,385.932556 358.142303,385.951416 
	C358.808441,385.952148 359.475250,385.323792 360.541046,385.054810 
	C360.541046,385.054810 360.925049,384.926788 361.879578,384.985443 
	C372.286041,384.991760 382.692780,385.035034 393.098602,384.956482 
	C394.366547,384.946930 395.629578,384.282867 397.037018,383.179779 
	C396.756714,380.453644 396.476410,377.727478 395.744080,374.224762 
	C394.090942,374.150177 392.437836,374.011414 390.784668,374.010620 
	C363.190063,373.997314 335.595398,374.017242 308.000916,373.962311 
	C306.305176,373.958954 304.610596,373.394714 302.928284,372.256195 
	C302.912659,371.143250 302.897064,370.030273 302.844208,368.432220 
	C302.661560,368.127899 302.393066,367.965454 302.006470,368.000305 
	C302.006470,368.000305 302.063660,367.971375 301.669861,367.181854 
	C294.248810,367.121399 286.825989,367.137146 279.407532,366.964996 
	C276.207428,366.890747 273.016357,366.427826 269.946136,365.193970 
	C269.975372,358.150757 270.004639,351.107544 270.964844,344.015961 
	C322.928192,344.010010 374.891602,344.020294 426.854828,343.935059 
	C428.806458,343.931854 432.318207,343.235138 432.433716,342.462524 
	C432.903076,339.323425 434.731537,335.605774 430.933746,332.291901 
	C430.648865,331.717621 430.490723,331.016174 430.060669,330.587524 
	C418.336639,318.902374 406.584778,307.245117 394.733307,295.274597 
	C394.733307,295.274597 394.427490,295.162445 394.096252,294.635193 
	C390.011536,290.618591 385.926819,286.601959 381.728668,282.267242 
	C381.728668,282.267242 381.410156,282.155060 381.087585,281.624542 
	C377.005157,277.610901 372.922729,273.597229 368.734924,269.273529 
	C368.734924,269.273529 368.427338,269.161102 368.097321,268.636292 
	C365.741119,266.410034 363.384888,264.183746 361.000031,262.000000 
	C361.000031,262.000000 361.042999,261.971680 360.896729,261.385956 
	C360.274231,260.913208 359.651733,260.440430 359.000000,260.000000 
	C359.000000,260.000000 359.031799,259.970459 358.845764,259.323120 
	C355.585175,255.595718 352.324615,251.868317 349.828735,248.030090 
	C354.469147,249.800293 359.082458,251.648438 363.771057,253.280197 
	C364.808533,253.641266 366.331848,253.593765 367.211060,253.052063 
	C367.739014,252.726822 367.797546,250.958527 367.474640,250.049103 
	C365.913452,245.651962 364.063843,241.357315 362.498291,236.961578 
	C361.739441,234.830872 361.379639,232.558029 360.708679,229.816330 
	C369.370789,229.405167 377.061829,229.040100 386.311920,228.601028 
	C379.976349,221.608994 374.290436,215.333954 368.356506,208.785172 
	C376.402924,205.134903 383.779114,201.788666 392.479370,197.841797 
	C383.796265,193.806305 376.306824,190.325562 368.119080,186.520294 
	C371.467590,182.638123 374.321716,179.329132 377.787842,176.015182 
	C378.229248,175.693130 378.670654,175.371078 379.036133,175.035477 
	C379.036133,175.035477 379.028137,175.112167 379.569794,174.969742 
	C379.743866,174.655930 379.917938,174.342117 380.022186,174.021500 
	C380.022186,174.021500 380.031647,174.090988 380.573639,173.967056 
	C380.746918,173.655579 380.920197,173.344101 381.023346,173.021851 
z"/>
<path fill="#ADD6E5" opacity="1.000000" stroke="none" 
	d="
M74.173416,220.915573 
	C75.825157,220.921387 77.476891,220.927185 79.643875,221.407013 
	C81.862511,222.253113 83.565598,222.948715 85.269333,222.950348 
	C137.511108,223.000153 189.752960,222.981873 242.463318,222.998413 
	C252.233658,223.083939 261.535461,223.145218 270.841919,223.590942 
	C270.853882,225.257004 270.861115,226.538635 270.676514,227.882416 
	C270.273987,228.304474 270.063263,228.664352 269.602722,229.273193 
	C267.233368,230.002396 265.113861,230.482635 262.892578,230.609467 
	C260.423676,229.068909 258.076202,226.901749 255.686096,226.853683 
	C240.211151,226.542526 224.726898,226.683090 209.245758,226.712387 
	C208.053421,226.714630 206.861603,226.999405 204.582016,227.292847 
	C214.287323,236.929504 223.176041,245.882019 232.269943,254.621017 
	C233.379669,255.687454 235.588852,255.988541 237.292511,255.999115 
	C252.939545,256.096405 268.587494,256.059387 284.235107,256.029480 
	C285.288513,256.027435 286.341400,255.766052 288.024506,255.541092 
	C283.026215,250.213333 278.514038,245.403687 273.954407,240.273621 
	C274.490967,238.658920 275.074982,237.364609 275.991425,236.170166 
	C281.892395,241.760330 287.286652,247.446838 293.125336,252.632965 
	C295.129120,254.412766 298.224091,255.832153 300.855408,255.892380 
	C314.832703,256.212311 328.821136,256.056702 342.805664,256.035858 
	C344.039093,256.033997 345.272217,255.816711 347.612000,255.594315 
	C337.852783,245.857056 328.838409,236.830643 319.757599,227.871567 
	C319.115875,227.238449 317.983063,226.777435 317.081390,226.781998 
	C302.443481,226.855942 287.805969,227.018127 273.204834,226.802429 
	C273.511841,225.282776 273.782440,224.121048 274.516052,222.975616 
	C286.523590,223.000137 298.068604,223.065384 309.612030,222.958466 
	C311.465515,222.941299 313.311859,222.155045 315.566711,221.706818 
	C319.345825,221.531677 322.515747,221.818710 324.206207,225.750488 
	C324.523865,226.359543 324.789551,226.661621 325.024780,226.960571 
	C324.994293,226.957443 325.046326,226.925049 325.170532,227.229675 
	C326.887726,229.004379 328.480713,230.474457 330.041626,231.973373 
	C330.009521,232.002228 330.057220,231.930771 330.164978,232.207977 
	C330.871857,232.970398 331.470917,233.455597 332.033234,233.964172 
	C331.996460,233.987564 332.055878,233.923218 332.185425,234.231171 
	C333.549225,235.363068 334.783508,236.187012 336.003418,237.010986 
	C335.989105,237.011017 335.988922,236.982315 335.994263,237.317413 
	C337.025330,238.753006 338.051056,239.853500 339.043060,240.974548 
	C339.009338,240.995087 339.052002,240.928650 339.154175,241.242950 
	C340.496307,243.034546 341.736267,244.511826 343.323761,246.025711 
	C344.135010,246.033173 344.598755,246.004028 345.035706,245.988403 
	C345.008942,246.001923 345.016449,245.942444 345.000122,246.306702 
	C347.302826,249.557449 349.389893,252.680878 352.016846,255.252914 
	C353.996765,257.191467 356.668182,258.423767 359.031799,259.970459 
	C359.031799,259.970459 359.000000,260.000000 359.041565,260.309570 
	C359.736420,261.069977 360.389709,261.520844 361.042999,261.971680 
	C361.042999,261.971680 361.000031,262.000000 360.989807,262.345520 
	C362.238129,266.256775 364.096924,269.131500 368.427338,269.161102 
	C368.427338,269.161102 368.734924,269.273529 368.599915,269.744324 
	C372.009796,274.225250 375.519836,278.267700 379.156860,282.192444 
	C379.497650,282.560211 380.639984,282.185181 381.410156,282.155060 
	C381.410156,282.155060 381.728668,282.267242 381.598938,282.742828 
	C384.498047,288.599915 388.251099,293.195740 394.427490,295.162445 
	C394.427490,295.162445 394.733307,295.274597 394.595398,295.744080 
	C395.378601,297.687927 396.076538,299.378510 397.259186,300.599609 
	C402.575531,306.088867 408.072815,311.402496 413.420349,316.862213 
	C417.754578,321.287415 421.968506,325.830444 426.958862,331.082153 
	C410.257965,331.082153 394.817871,331.035645 379.378845,331.144409 
	C377.567474,331.157135 375.762054,332.024689 373.527557,332.562805 
	C371.107117,332.578674 369.113007,332.527710 366.911560,332.168915 
	C365.766968,331.602661 364.830261,331.121368 363.892303,331.118896 
	C346.726593,331.073700 329.560577,331.059601 312.395142,331.143860 
	C311.220428,331.149628 310.049774,331.983398 308.461609,332.519104 
	C306.070618,332.559540 304.095215,332.513000 301.931946,332.175415 
	C299.121185,332.059723 296.498260,332.235046 293.424622,332.500305 
	C276.356506,332.539581 259.739075,332.488953 242.910706,332.139282 
	C238.425446,332.037811 234.151077,332.235413 229.424957,332.517944 
	C213.336639,332.848755 197.700089,333.094635 181.768433,333.171509 
	C180.545151,332.107910 179.616974,331.213379 178.879913,330.092224 
	C175.144806,325.434204 171.409821,320.811401 167.229767,316.633942 
	C164.079483,313.485626 160.359055,310.907837 156.930267,308.044373 
	C156.968155,308.012634 156.927277,308.102631 156.928650,307.743317 
	C153.382950,303.375641 149.874374,299.331543 146.235962,295.407898 
	C145.821182,294.960571 144.678574,295.188171 143.884521,295.068024 
	C143.895599,295.033234 143.930786,295.097229 143.929016,294.733826 
	C143.060684,292.992798 142.408279,291.404510 141.293274,290.271362 
	C133.152588,281.998016 125.029587,273.701050 116.663399,265.658722 
	C113.028275,262.164337 108.832779,259.252899 104.925507,256.042999 
	C104.959213,256.009308 104.930405,256.100159 104.927193,255.737366 
	C102.236137,250.892441 99.629616,246.323563 93.958931,245.032715 
	C93.995399,245.002762 93.937553,245.077255 93.965858,244.706497 
	C92.907921,243.273346 91.821678,242.210938 90.795082,241.137695 
	C90.854729,241.126846 90.855339,241.248093 90.858154,240.881653 
	C88.545776,238.698242 86.230583,236.881256 83.959488,235.058868 
	C84.003578,235.053467 83.925941,235.096924 83.958984,234.722870 
	C82.900024,230.521088 80.712799,228.011353 76.270767,228.054169 
	C75.926331,227.948364 75.878815,227.789215 75.879608,227.276184 
	C75.490952,226.647476 75.212067,226.325500 74.955063,226.033295 
	C74.976936,226.063049 74.916580,226.105667 74.966095,225.748169 
	C74.807716,224.267944 74.599831,223.145233 74.354919,221.742310 
	C74.269737,221.279938 74.221581,221.097763 74.173416,220.915573 
M305.975464,327.885071 
	C323.654755,327.885071 341.334045,327.885071 359.013306,327.885071 
	C359.338531,327.449188 359.663757,327.013336 359.988983,326.577454 
	C353.705048,320.590790 347.460815,314.561615 341.121765,308.633881 
	C337.504608,305.251465 333.732788,302.034393 329.277863,298.436066 
	C311.979889,298.436066 294.681915,298.436066 277.383942,298.436066 
	C277.114014,299.007904 276.844055,299.579773 276.574127,300.151611 
	C280.121460,303.382355 283.764832,306.514740 287.194977,309.865479 
	C293.217957,315.749023 299.110321,321.766235 305.975464,327.885071 
M337.931854,293.150208 
	C353.158081,293.150208 368.384308,293.150208 384.593628,293.150208 
	C376.166046,284.577087 368.529388,276.808563 360.561249,268.472565 
	C356.100739,262.560364 350.363617,260.588806 342.865082,261.016418 
	C331.415131,261.669403 319.900208,261.172760 308.412933,261.191101 
	C306.682251,261.193848 304.951843,261.342255 302.657318,261.449707 
	C303.430206,262.714569 303.671143,263.348236 304.107574,263.787811 
	C313.256226,273.002319 322.359406,282.264587 331.677155,291.305511 
	C332.870850,292.463745 335.203857,292.447784 337.931854,293.150208 
M200.500031,261.187592 
	C192.788483,261.187592 185.076935,261.187592 177.365387,261.187592 
	C177.214172,261.639679 177.062943,262.091797 176.911728,262.543884 
	C186.797409,272.359802 196.623749,282.237305 206.653641,291.903595 
	C207.747025,292.957367 210.011673,293.131042 211.736633,293.141754 
	C227.043106,293.237000 242.350433,293.213348 257.657440,293.190338 
	C258.984009,293.188324 260.310211,292.939514 262.876434,292.679932 
	C252.139877,282.020050 242.411530,272.244904 232.488907,262.671204 
	C231.373962,261.595428 229.165878,261.284637 227.454453,261.257111 
	C218.804825,261.117950 210.151825,261.189941 200.500031,261.187592 
M251.537262,261.192627 
	C247.804459,261.192627 244.071655,261.192627 239.444336,261.192627 
	C240.603394,262.794403 240.985855,263.500397 241.528854,264.046875 
	C250.438950,273.014038 259.267548,282.067352 268.393524,290.809967 
	C269.946533,292.297729 272.785889,293.063690 275.044922,293.093140 
	C290.180054,293.290558 305.318970,293.207977 320.456573,293.183502 
	C321.814362,293.181305 323.171753,292.947083 325.969330,292.686462 
	C315.151001,282.038727 305.397369,272.303253 295.424438,262.797943 
	C294.201965,261.632812 291.809326,261.283020 289.951569,261.263550 
	C277.476807,261.132996 265.000031,261.194061 251.537262,261.192627 
M136.430664,281.069427 
	C139.014923,283.658508 141.775635,286.097534 144.137695,288.875519 
	C146.935471,292.165985 150.103775,293.449524 154.528458,293.302368 
	C164.993362,292.954346 175.477722,293.190552 185.954208,293.190521 
	C190.184158,293.190521 194.414108,293.190521 199.478470,293.190521 
	C198.483475,291.648926 198.165176,290.904633 197.634735,290.371307 
	C188.606689,281.294342 179.644485,272.147491 170.407806,263.286987 
	C168.966125,261.904022 166.256744,261.310120 164.118286,261.274811 
	C152.647217,261.085205 141.171310,261.188141 129.697083,261.189758 
	C125.944405,261.190277 122.191719,261.189850 118.439041,261.189850 
	C118.261780,261.593750 118.084511,261.997650 117.907242,262.401550 
	C123.919113,268.453491 129.930984,274.505432 136.430664,281.069427 
M222.085037,308.430054 
	C228.099335,314.166260 234.040070,319.983307 240.185837,325.575012 
	C241.524277,326.792786 243.589539,327.866180 245.331619,327.884125 
	C261.827972,328.054291 278.326874,327.986328 294.824982,327.959808 
	C295.395142,327.958893 295.964874,327.673309 297.450836,327.274689 
	C288.435364,318.327148 280.063263,309.808014 271.398315,301.597900 
	C269.691437,299.980621 266.869690,298.752960 264.537598,298.711060 
	C250.043701,298.450684 235.542831,298.579437 221.044266,298.579132 
	C218.827087,298.579102 216.609924,298.579132 213.487411,298.579132 
	C216.647629,302.227783 219.113388,305.074677 222.085037,308.430054 
M153.574463,238.925583 
	C158.390640,243.765961 163.078888,248.745453 168.100052,253.362915 
	C169.630203,254.770065 172.067322,255.905029 174.105499,255.932220 
	C189.758850,256.140991 205.416260,256.056000 221.072342,256.024628 
	C222.235794,256.022308 223.398651,255.728058 225.986084,255.375397 
	C216.120575,245.722427 207.276810,236.924149 198.207291,228.365112 
	C196.970535,227.197952 194.609985,226.784286 192.763657,226.769196 
	C177.275055,226.642593 161.785004,226.680374 146.295456,226.706161 
	C145.105301,226.708145 143.915619,226.996262 141.176331,227.353348 
	C145.799576,231.655670 149.436996,235.040588 153.574463,238.925583 
M416.314423,324.264069 
	C408.795868,316.727631 401.418854,309.040314 393.658905,301.761230 
	C391.726196,299.948242 388.576538,298.558899 385.952850,298.501587 
	C371.653534,298.189148 357.343781,298.346710 343.037628,298.366821 
	C341.800354,298.368561 340.563354,298.546783 338.765533,298.686615 
	C339.662262,299.825134 340.093201,300.509247 340.653229,301.062744 
	C349.279572,309.589081 357.886139,318.136383 366.616394,326.555328 
	C367.528778,327.435150 369.193695,327.924957 370.513306,327.932648 
	C385.983307,328.023010 401.454041,327.991760 416.924530,327.961945 
	C417.489319,327.960876 418.053497,327.644623 418.940979,327.378326 
	C418.051208,326.293457 417.432861,325.539490 416.314423,324.264069 
M213.499756,327.988220 
	C220.207779,327.988220 226.915802,327.988220 234.444199,327.988220 
	C233.382416,326.464478 233.088104,325.877319 232.648117,325.435120 
	C224.427261,317.172821 216.286392,308.825928 207.861557,300.776398 
	C206.408737,299.388306 203.742203,298.699738 201.623444,298.672028 
	C187.801971,298.491302 173.976959,298.571014 160.153152,298.598969 
	C158.608871,298.602081 157.065018,298.814819 153.960358,299.047058 
	C163.502762,308.443665 171.902054,316.930939 180.602859,325.096985 
	C182.309219,326.698456 185.153931,327.766632 187.522064,327.860626 
	C195.836563,328.190765 204.172211,327.988434 213.499756,327.988220 
M112.325813,255.959137 
	C128.727158,255.959137 145.128510,255.959137 162.319046,255.959137 
	C161.417969,254.543777 161.111191,253.804413 160.588760,253.279785 
	C152.364792,245.020920 144.199539,236.699295 135.779221,228.644623 
	C134.438843,227.362442 131.930618,226.796646 129.950577,226.769943 
	C117.627335,226.603745 105.300743,226.685501 92.975266,226.685089 
	C89.896957,226.684982 86.818649,226.685059 82.962585,226.685059 
	C92.977608,236.882828 102.248360,246.322739 112.325813,255.959137 
z"/>
<path fill="#F7D264" opacity="1.000000" stroke="none" 
	d="
M377.175842,176.020142 
	C374.321716,179.329132 371.467590,182.638123 368.119080,186.520294 
	C376.306824,190.325562 383.796265,193.806305 392.479370,197.841797 
	C383.779114,201.788666 376.402924,205.134903 368.356506,208.785172 
	C374.290436,215.333954 379.976349,221.608994 386.311920,228.601028 
	C377.061829,229.040100 369.370789,229.405167 360.708679,229.816330 
	C361.379639,232.558029 361.739441,234.830872 362.498291,236.961578 
	C364.063843,241.357315 365.913452,245.651962 367.474640,250.049103 
	C367.797546,250.958527 367.739014,252.726822 367.211060,253.052063 
	C366.331848,253.593765 364.808533,253.641266 363.771057,253.280197 
	C359.082458,251.648438 354.469147,249.800293 349.150024,247.939117 
	C347.319702,247.212906 346.168091,246.577682 345.016449,245.942444 
	C345.016449,245.942444 345.008942,246.001923 344.930481,245.777161 
	C344.655670,245.295914 344.406677,245.109894 343.947876,244.695679 
	C342.211151,243.240906 340.631592,242.084778 339.052002,240.928650 
	C339.052002,240.928650 339.009338,240.995087 339.124176,240.657028 
	C338.817902,239.565216 338.396790,238.811462 338.205261,237.814835 
	C342.739838,233.482986 347.709290,229.891891 351.219666,225.207428 
	C360.131989,213.314270 361.829803,199.513184 358.686340,185.390411 
	C356.541565,175.754227 351.827667,167.213440 343.751526,160.786072 
	C331.750336,151.234985 318.323181,147.720413 303.234314,150.038910 
	C290.626068,151.976242 280.568176,158.445251 273.209686,168.456940 
	C263.840454,181.204407 261.226746,195.585632 265.778229,210.982513 
	C266.786469,214.393143 267.907593,217.770401 268.512085,221.222794 
	C261.338074,221.339615 254.628769,221.396683 247.548660,221.345184 
	C246.405457,221.267365 245.633057,221.298096 244.792664,221.030594 
	C244.674988,220.534607 244.625305,220.336823 244.575623,220.139053 
	C247.817078,216.425171 251.058533,212.711288 254.501556,208.766479 
	C246.512222,205.041916 239.038483,201.557724 230.766357,197.701324 
	C239.305115,193.448227 246.538452,189.845352 254.123642,186.067230 
	C248.628937,179.817871 243.064713,173.489456 236.894897,166.472275 
	C246.273712,165.946487 254.411743,165.490250 263.212799,164.996841 
	C260.261841,156.864807 257.466827,149.162506 254.442429,140.828049 
	C263.365967,143.976807 271.325745,146.785492 279.876526,149.802719 
	C279.876526,140.729782 279.876526,132.614365 279.876526,124.498955 
	C280.281860,124.147827 280.687225,123.796700 281.092560,123.445580 
	C287.312225,129.130630 293.531860,134.815674 300.070587,140.792374 
	C303.889282,132.739914 307.329163,125.486183 311.479004,116.735382 
	C315.625732,125.258408 319.178528,132.560699 323.060120,140.538696 
	C329.221588,134.866974 335.263275,129.305542 341.304932,123.744102 
	C341.825287,124.019974 342.345642,124.295853 342.865997,124.571724 
	C343.391724,132.643875 343.917450,140.716034 344.441345,148.760132 
	C352.377533,146.914413 359.231201,141.402527 368.280853,142.102585 
	C365.576904,150.188980 363.042206,157.769135 360.286469,166.010437 
	C362.963135,166.010437 364.765381,166.010437 367.348175,166.238419 
	C373.173126,166.466400 378.217590,166.466400 383.519775,166.466400 
	C382.848175,169.045380 382.451508,170.568527 382.054840,172.091675 
	C382.054840,172.091675 382.023285,172.028351 381.775452,172.074356 
	C381.359558,172.444504 381.191528,172.768661 381.023468,173.092804 
	C381.023468,173.092804 381.023346,173.021851 380.759705,173.046265 
	C380.341278,173.410782 380.186462,173.750885 380.031647,174.090988 
	C380.031647,174.090988 380.022186,174.021500 379.763428,174.056686 
	C379.345795,174.431961 379.186951,174.772064 379.028137,175.112167 
	C379.028137,175.112167 379.036133,175.035477 378.770203,175.017334 
	C378.061462,175.339523 377.618652,175.679840 377.175842,176.020142 
z"/>
<path fill="#34934F" opacity="1.000000" stroke="none" 
	d="
M396.196106,375.001343 
	C396.476410,377.727478 396.756714,380.453644 396.505493,383.534363 
	C386.531799,383.927155 377.088898,383.909515 367.648132,384.044403 
	C365.403351,384.076477 363.165894,384.619049 360.925049,384.926788 
	C360.925049,384.926788 360.541046,385.054810 359.869019,384.944214 
	C341.417267,384.884949 323.637543,384.936249 305.857849,384.987549 
	C305.857849,384.987579 305.456726,385.054565 304.932312,384.726349 
	C303.593048,384.268829 302.778229,384.026886 301.963318,384.026428 
	C264.536194,384.006256 227.109039,383.998260 189.681976,384.044434 
	C188.429321,384.045959 187.177383,384.619751 185.925110,384.926788 
	C185.925110,384.926788 185.541092,385.054810 184.869019,384.944214 
	C161.083725,384.884888 137.970490,384.936127 114.857246,384.987396 
	C114.857246,384.987396 114.458282,385.054962 113.950745,384.729858 
	C110.925751,384.280151 108.408310,384.155548 105.890862,384.030945 
	C103.073219,381.333649 103.459175,378.390839 106.024048,375.190125 
	C135.535324,374.956451 164.247681,374.874969 193.430191,374.821777 
	C210.276474,374.775146 226.652603,374.700256 243.381119,374.710785 
	C244.446869,374.743622 245.160233,374.691040 246.345123,374.707153 
	C265.121552,374.809570 283.426422,374.843292 302.222839,374.911072 
	C333.874939,374.963867 365.035522,374.982605 396.196106,375.001343 
z"/>
<path fill="#3D6CA5" opacity="1.000000" stroke="none" 
	d="
M178.688797,330.318848 
	C179.616974,331.213379 180.545151,332.107910 181.742126,333.579834 
	C182.012253,337.077820 182.013550,339.998444 181.993347,343.176178 
	C181.946411,343.603455 181.920990,343.773621 181.895554,343.943787 
	C180.442154,342.998535 178.768402,342.274139 177.567383,341.075897 
	C142.514771,306.104645 107.595627,270.998779 72.378731,236.194138 
	C68.325211,232.188034 69.219101,228.105057 69.537933,223.319641 
	C70.451378,223.025330 71.088852,223.092560 71.854675,223.454971 
	C72.960892,224.535324 73.938736,225.320496 74.916580,226.105652 
	C74.916580,226.105667 74.976936,226.063049 74.998444,226.367615 
	C75.343102,226.975769 75.666237,227.279327 75.989372,227.582901 
	C75.878815,227.789215 75.926331,227.948364 76.469299,228.352768 
	C79.179764,230.795761 81.552856,232.946350 83.925941,235.096924 
	C83.925941,235.096924 84.003578,235.053467 84.025803,235.393875 
	C86.317139,237.572220 88.586243,239.410156 90.855347,241.248093 
	C90.855339,241.248093 90.854729,241.126846 90.607758,241.449326 
	C91.553047,242.873627 92.745300,243.975433 93.937553,245.077255 
	C93.937553,245.077255 93.995399,245.002762 94.010567,245.370285 
	C97.660622,249.191925 101.295517,252.646042 104.930405,256.100159 
	C104.930405,256.100159 104.959213,256.009308 104.970764,256.380554 
	C116.210503,268.076233 127.420296,279.419037 138.687653,290.704376 
	C140.292252,292.311523 142.176147,293.639862 143.930786,295.097229 
	C143.930786,295.097229 143.895599,295.033234 143.932022,295.402954 
	C148.288055,299.882690 152.607666,303.992645 156.927277,308.102631 
	C156.927277,308.102631 156.968155,308.012634 156.971893,308.383179 
	C164.213348,315.942078 171.451080,323.130463 178.688797,330.318848 
z"/>
<path fill="#284F86" opacity="1.000000" stroke="none" 
	d="
M218.012039,366.794922 
	C218.021072,359.502441 218.030106,352.209930 218.019928,344.461975 
	C218.000732,344.006470 217.977951,343.975861 218.448639,343.984161 
	C229.629013,344.016327 240.338684,344.040222 251.039215,344.528625 
	C251.024582,348.792419 251.015137,352.591705 251.014343,356.390961 
	C251.012161,366.998444 251.013443,366.966644 240.643936,367.009338 
	C233.050873,367.040619 225.458221,367.169342 217.821747,367.114075 
	C217.778107,366.973541 218.012039,366.794922 218.012039,366.794922 
z"/>
<path fill="#244066" opacity="1.000000" stroke="none" 
	d="
M301.731323,374.877014 
	C283.426422,374.843292 265.121552,374.809570 246.356674,374.310303 
	C245.369812,370.099182 247.041000,368.969299 250.716995,368.983521 
	C256.804657,369.007050 262.894501,368.465668 269.452759,368.178772 
	C280.635956,368.120605 291.349823,368.045990 302.063660,367.971375 
	C302.063660,367.971375 302.006470,368.000305 302.085144,368.191956 
	C302.332062,368.656921 302.571289,368.834808 302.881470,368.917328 
	C302.897064,370.030273 302.912659,371.143250 302.625793,372.736328 
	C302.125977,373.770020 301.928650,374.323517 301.731323,374.877014 
z"/>
<path fill="#284F86" opacity="1.000000" stroke="none" 
	d="
M270.033875,344.064331 
	C270.004639,351.107544 269.975372,358.150757 269.710297,365.770874 
	C269.275055,366.533966 269.117310,366.750580 268.534119,366.997559 
	C264.914978,366.996582 261.753510,366.842224 258.613586,367.036194 
	C255.226166,367.245453 253.819183,366.046143 253.931213,362.503357 
	C254.125137,356.372192 253.951523,350.229401 254.404877,344.062012 
	C259.928467,344.015564 264.979218,343.998566 270.043030,344.001648 
	C270.056091,344.021759 270.033875,344.064331 270.033875,344.064331 
z"/>
<path fill="#F1FCFF" opacity="1.000000" stroke="none" 
	d="
M244.187561,220.101471 
	C244.625305,220.336823 244.674988,220.534607 244.793427,221.195221 
	C244.862198,221.658066 244.858810,221.989990 244.542007,221.999954 
	C243.481735,222.331329 242.738266,222.652740 241.994797,222.974152 
	C189.752960,222.981873 137.511108,223.000153 85.269333,222.950348 
	C83.565598,222.948715 81.862511,222.253113 80.048019,221.494949 
	C132.660141,221.072296 185.383377,221.045410 238.106522,220.959885 
	C240.004669,220.956802 241.901855,220.375641 244.187561,220.101471 
z"/>
<path fill="#2B5584" opacity="1.000000" stroke="none" 
	d="
M243.028732,374.625366 
	C226.652603,374.700256 210.276474,374.775146 193.408203,374.579041 
	C192.871826,373.982574 192.854309,373.655670 192.868866,373.016479 
	C192.628433,372.159088 192.382675,371.612518 192.136902,371.065948 
	C192.136902,371.065948 191.980606,370.647858 191.973358,370.109375 
	C191.953583,369.359650 191.941071,369.148407 191.928574,368.937195 
	C191.928574,368.937195 191.996948,368.971069 192.233978,369.005981 
	C192.654449,369.018311 192.837921,368.995697 193.208862,368.877075 
	C193.633743,368.627106 193.838806,368.438019 194.330353,368.202728 
	C195.074280,368.208588 195.499329,368.225525 196.008148,368.482574 
	C196.752380,368.550751 197.412811,368.378815 198.535889,368.176758 
	C205.336807,368.121613 211.675064,368.096619 218.213593,368.374878 
	C219.599625,369.046692 220.793243,369.752502 221.969864,369.725281 
	C227.032211,369.608093 232.104294,369.436157 237.144257,368.973114 
	C241.510925,368.571899 243.776047,369.916656 243.028732,374.625366 
z"/>
<path fill="#88B4CD" opacity="1.000000" stroke="none" 
	d="
M373.953888,332.495972 
	C375.762054,332.024689 377.567474,331.157135 379.378845,331.144409 
	C394.817871,331.035645 410.257965,331.082153 426.958862,331.082153 
	C421.968506,325.830444 417.754578,321.287415 413.420349,316.862213 
	C408.072815,311.402496 402.575531,306.088867 397.259186,300.599609 
	C396.076538,299.378510 395.378601,297.687927 394.647522,295.898376 
	C406.584778,307.245117 418.336639,318.902374 430.060669,330.587524 
	C430.490723,331.016174 430.648865,331.717621 430.972351,332.593689 
	C431.010925,332.895447 430.918396,332.907379 430.456604,332.930359 
	C420.065460,332.959869 410.135681,333.030273 400.207001,332.953796 
	C391.455322,332.886414 382.704865,332.654999 373.953888,332.495972 
z"/>
<path fill="#506188" opacity="1.000000" stroke="none" 
	d="
M431.021545,332.940857 
	C434.731537,335.605774 432.903076,339.323425 432.433716,342.462524 
	C432.318207,343.235138 428.806458,343.931854 426.854828,343.935059 
	C374.891602,344.020294 322.928192,344.010010 270.499359,344.040161 
	C270.033875,344.064331 270.056091,344.021759 270.351318,343.725769 
	C273.124512,343.288483 275.602356,343.026123 278.080505,343.023834 
	C328.363892,342.977692 378.647339,342.961304 429.312256,342.839417 
	C430.101959,339.462341 430.510162,336.184845 430.918396,332.907379 
	C430.918396,332.907379 431.010925,332.895447 431.021545,332.940857 
z"/>
<path fill="#6CAD84" opacity="1.000000" stroke="none" 
	d="
M186.402374,384.956116 
	C187.177383,384.619751 188.429321,384.045959 189.681976,384.044434 
	C227.109039,383.998260 264.536194,384.006256 301.963318,384.026428 
	C302.778229,384.026886 303.593048,384.268829 304.739258,384.662476 
	C265.673615,384.946320 226.276627,384.965881 186.402374,384.956116 
z"/>
<path fill="#9FC9AF" opacity="1.000000" stroke="none" 
	d="
M302.222839,374.911072 
	C301.928650,374.323517 302.125977,373.770020 302.619385,373.153961 
	C304.610596,373.394714 306.305176,373.958954 308.000916,373.962311 
	C335.595398,374.017242 363.190063,373.997314 390.784668,374.010620 
	C392.437836,374.011414 394.090942,374.150177 395.970093,374.613037 
	C365.035522,374.982605 333.874939,374.963867 302.222839,374.911072 
z"/>
<path fill="#9FC9AF" opacity="1.000000" stroke="none" 
	d="
M192.863541,373.327332 
	C192.854309,373.655670 192.871826,373.982574 192.938049,374.550751 
	C164.247681,374.874969 135.535324,374.956451 106.346909,375.008972 
	C107.547997,374.655121 109.224464,374.051239 110.902420,374.047089 
	C135.928375,373.985138 160.954575,374.016998 185.980591,373.969604 
	C187.723022,373.966309 189.464615,373.513367 191.800034,373.216003 
	C192.393478,373.162445 192.863541,373.327332 192.863541,373.327332 
z"/>
<path fill="#F1FCFF" opacity="1.000000" stroke="none" 
	d="
M115.068756,385.381226 
	C137.970490,384.936127 161.083725,384.884888 184.669357,384.911102 
	C184.474823,385.323792 183.807602,385.952454 183.141022,385.951813 
	C160.520721,385.929840 137.900497,385.848114 115.068756,385.381226 
z"/>
<path fill="#F1FCFF" opacity="1.000000" stroke="none" 
	d="
M306.069214,385.381439 
	C323.637543,384.936249 341.417267,384.884949 359.669373,384.911102 
	C359.475250,385.323792 358.808441,385.952148 358.142303,385.951416 
	C340.855042,385.932556 323.567810,385.848297 306.069214,385.381439 
z"/>
<path fill="#88B4CD" opacity="1.000000" stroke="none" 
	d="
M345.000122,246.306702 
	C346.168091,246.577682 347.319702,247.212906 348.767700,247.994537 
	C352.324615,251.868317 355.585175,255.595718 358.938782,259.646790 
	C356.668182,258.423767 353.996765,257.191467 352.016846,255.252914 
	C349.389893,252.680878 347.302826,249.557449 345.000122,246.306702 
z"/>
<path fill="#88B4CD" opacity="1.000000" stroke="none" 
	d="
M381.248871,281.889801 
	C380.639984,282.185181 379.497650,282.560211 379.156860,282.192444 
	C375.519836,278.267700 372.009796,274.225250 368.652588,269.899353 
	C372.922729,273.597229 377.005157,277.610901 381.248871,281.889801 
z"/>
<path fill="#506188" opacity="1.000000" stroke="none" 
	d="
M182.373291,343.984192 
	C181.920990,343.773621 181.946411,343.603455 182.335297,343.191833 
	C183.155624,342.946899 183.612488,342.943420 184.530045,342.962128 
	C193.758575,342.991852 202.527222,342.935791 211.293625,343.050934 
	C213.525406,343.080261 215.750031,343.652893 217.977951,343.975891 
	C217.977951,343.975861 218.000732,344.006470 218.014313,343.991882 
	C206.302292,343.993103 194.576660,344.008850 182.373291,343.984192 
z"/>
<path fill="#6CAD84" opacity="1.000000" stroke="none" 
	d="
M361.402313,384.956116 
	C363.165894,384.619049 365.403351,384.076477 367.648132,384.044403 
	C377.088898,383.909515 386.531799,383.927155 396.434387,383.905548 
	C395.629578,384.282867 394.366547,384.946930 393.098602,384.956482 
	C382.692780,385.035034 372.286041,384.991760 361.402313,384.956116 
z"/>
<path fill="#88B4CD" opacity="1.000000" stroke="none" 
	d="
M394.261871,294.898804 
	C388.251099,293.195740 384.498047,288.599915 381.655640,282.901855 
	C385.926819,286.601959 390.011536,290.618591 394.261871,294.898804 
z"/>
<path fill="#5D8DC2" opacity="1.000000" stroke="none" 
	d="
M269.001282,366.997559 
	C269.117310,366.750580 269.275055,366.533966 269.647827,366.244629 
	C273.016357,366.427826 276.207428,366.890747 279.407532,366.964996 
	C286.825989,367.137146 294.248810,367.121399 301.866760,367.576599 
	C291.349823,368.045990 280.635956,368.120605 269.473328,367.887207 
	C269.016785,367.385345 269.009033,367.191437 269.001282,366.997559 
z"/>
<path fill="#E9EADB" opacity="1.000000" stroke="none" 
	d="
M382.396362,171.971985 
	C382.451508,170.568527 382.848175,169.045380 383.519775,166.466400 
	C378.217590,166.466400 373.173126,166.466400 367.804626,166.327789 
	C373.568939,166.189163 379.657288,166.189163 387.239288,166.189163 
	C385.326416,168.595734 384.032135,170.223999 382.396362,171.971985 
z"/>
<path fill="#5D8DC2" opacity="1.000000" stroke="none" 
	d="
M193.021393,368.973053 
	C192.837921,368.995697 192.654449,369.018311 192.195862,369.006531 
	C193.105988,368.315247 194.277359,367.120728 195.478806,367.089661 
	C202.678375,366.903595 209.884842,366.985138 217.550522,366.885925 
	C218.012039,366.794922 217.778107,366.973541 217.864532,367.316589 
	C217.950974,367.659668 218.013336,368.071594 218.013336,368.071594 
	C211.675064,368.096619 205.336807,368.121613 198.178070,368.121979 
	C196.879868,368.145721 196.402115,368.194092 195.924362,368.242462 
	C195.499329,368.225525 195.074280,368.208588 194.115265,368.251465 
	C193.303909,368.455078 193.117279,368.675659 193.021393,368.973053 
z"/>
<path fill="#88B4CD" opacity="1.000000" stroke="none" 
	d="
M368.262329,268.898682 
	C364.096924,269.131500 362.238129,266.256775 361.004150,262.324280 
	C363.384888,264.183746 365.741119,266.410034 368.262329,268.898682 
z"/>
<path fill="#F1FCFF" opacity="1.000000" stroke="none" 
	d="
M71.726318,223.159790 
	C71.088852,223.092560 70.451378,223.025330 69.493607,222.964233 
	C70.715797,222.069565 72.258286,221.168762 73.987099,220.591766 
	C74.221581,221.097763 74.269737,221.279938 74.000610,221.842712 
	C73.030983,222.535477 72.378654,222.847641 71.726318,223.159790 
z"/>
<path fill="#6CAD84" opacity="1.000000" stroke="none" 
	d="
M106.077255,384.359131 
	C108.408310,384.155548 110.925751,384.280151 113.758720,384.666107 
	C111.470711,384.847412 108.867188,384.767334 106.077255,384.359131 
z"/>
<path fill="#88B4CD" opacity="1.000000" stroke="none" 
	d="
M360.969849,261.678833 
	C360.389709,261.520844 359.736420,261.069977 359.056183,260.293396 
	C359.651733,260.440430 360.274231,260.913208 360.969849,261.678833 
z"/>
<path fill="#E9EADB" opacity="1.000000" stroke="none" 
	d="
M377.481842,176.017670 
	C377.618652,175.679840 378.061462,175.339523 378.808167,175.024109 
	C378.670654,175.371078 378.229248,175.693130 377.481842,176.017670 
z"/>
<path fill="#34639E" opacity="1.000000" stroke="none" 
	d="
M192.868866,373.016479 
	C192.863541,373.327332 192.393478,373.162445 192.183868,373.028442 
	C192.000870,372.487122 192.027466,372.079865 192.095490,371.369263 
	C192.382675,371.612518 192.628433,372.159088 192.868866,373.016479 
z"/>
<path fill="#E9EADB" opacity="1.000000" stroke="none" 
	d="
M379.298950,175.040955 
	C379.186951,174.772064 379.345795,174.431961 379.798309,174.060089 
	C379.917938,174.342117 379.743866,174.655930 379.298950,175.040955 
z"/>
<path fill="#E9EADB" opacity="1.000000" stroke="none" 
	d="
M381.293640,173.025497 
	C381.191528,172.768661 381.359558,172.444504 381.810760,172.072403 
	C381.917236,172.335693 381.740540,172.646942 381.293640,173.025497 
z"/>
<path fill="#34639E" opacity="1.000000" stroke="none" 
	d="
M191.694122,369.026093 
	C191.941071,369.148407 191.953583,369.359650 191.946625,369.887817 
	C191.771317,369.841492 191.615494,369.478241 191.694122,369.026093 
z"/>
<path fill="#34639E" opacity="1.000000" stroke="none" 
	d="
M302.862854,368.674774 
	C302.571289,368.834808 302.332062,368.656921 302.101288,368.164276 
	C302.393066,367.965454 302.661560,368.127899 302.862854,368.674774 
z"/>
<path fill="#E9EADB" opacity="1.000000" stroke="none" 
	d="
M380.302643,174.029022 
	C380.186462,173.750885 380.341278,173.410782 380.794800,173.051651 
	C380.920197,173.344101 380.746918,173.655579 380.302643,174.029022 
z"/>
<path fill="#F5BD68" opacity="1.000000" stroke="none" 
	d="
M268.976746,221.163040 
	C267.907593,217.770401 266.786469,214.393143 265.778229,210.982513 
	C261.226746,195.585632 263.840454,181.204407 273.209686,168.456940 
	C280.568176,158.445251 290.626068,151.976242 303.234314,150.038910 
	C318.323181,147.720413 331.750336,151.234985 343.751526,160.786072 
	C351.827667,167.213440 356.541565,175.754227 358.686340,185.390411 
	C361.829803,199.513184 360.131989,213.314270 351.219666,225.207428 
	C347.709290,229.891891 342.739838,233.482986 337.956238,237.677612 
	C336.981415,237.516266 336.485168,237.249283 335.988922,236.982315 
	C335.988922,236.982315 335.989105,237.011017 335.880157,236.694763 
	C334.532776,235.560074 333.294312,234.741638 332.055878,233.923218 
	C332.055878,233.923218 331.996460,233.987564 332.068298,233.624359 
	C331.445831,232.817673 330.751526,232.374222 330.057220,231.930771 
	C330.057220,231.930771 330.009521,232.002228 330.105408,231.613815 
	C328.482971,229.791946 326.764648,228.358490 325.046326,226.925049 
	C325.046326,226.925049 324.994293,226.957443 325.015381,226.643951 
	C324.742401,226.034821 324.448303,225.739166 324.154236,225.443512 
	C322.515747,221.818710 319.345825,221.531677 315.183777,221.531342 
	C313.403442,221.287857 312.412720,221.156525 311.418762,221.123810 
	C298.350861,220.693863 285.282990,220.258163 272.212311,219.938461 
	C271.745941,219.927063 271.250702,221.096756 270.766602,221.748215 
	C270.764313,221.780441 270.828125,221.770264 270.589752,221.712463 
	C269.893158,221.490768 269.434967,221.326904 268.976746,221.163040 
z"/>
<path fill="#284F85" opacity="1.000000" stroke="none" 
	d="
M184.069336,342.939911 
	C183.612488,342.943420 183.155624,342.946899 182.356812,342.934692 
	C182.013550,339.998444 182.012253,337.077820 182.037247,333.748901 
	C197.700089,333.094635 213.336639,332.848755 229.870697,332.694824 
	C234.886017,332.670654 239.003815,332.554474 243.121628,332.438324 
	C259.739075,332.488953 276.356506,332.539581 293.855499,332.682312 
	C297.197968,332.671783 299.658905,332.569092 302.119812,332.466431 
	C304.095215,332.513000 306.070618,332.559540 308.911865,332.694763 
	C321.757080,332.846588 333.736664,332.980377 345.715729,332.946350 
	C352.850494,332.926086 359.984528,332.642151 367.118896,332.476746 
	C369.113007,332.527710 371.107117,332.578674 373.527557,332.562805 
	C382.704865,332.654999 391.455322,332.886414 400.207001,332.953796 
	C410.135681,333.030273 420.065460,332.959869 430.456573,332.930359 
	C430.510162,336.184845 430.101959,339.462341 428.994995,342.585571 
	C426.987091,342.285004 425.677979,342.010925 424.368805,342.010590 
	C345.852936,341.991150 267.337067,341.988678 188.821243,342.034576 
	C187.237076,342.035492 185.653290,342.625000 184.069336,342.939911 
z"/>
<path fill="#376AA8" opacity="1.000000" stroke="none" 
	d="
M201.000015,261.187744 
	C210.151825,261.189941 218.804825,261.117950 227.454453,261.257111 
	C229.165878,261.284637 231.373962,261.595428 232.488907,262.671204 
	C242.411530,272.244904 252.139877,282.020050 262.876434,292.679932 
	C260.310211,292.939514 258.984009,293.188324 257.657440,293.190338 
	C242.350433,293.213348 227.043106,293.237000 211.736633,293.141754 
	C210.011673,293.131042 207.747025,292.957367 206.653641,291.903595 
	C196.623749,282.237305 186.797409,272.359802 176.911728,262.543884 
	C177.062943,262.091797 177.214172,261.639679 177.365387,261.187592 
	C185.076935,261.187592 192.788483,261.187592 201.000015,261.187744 
z"/>
<path fill="#3669A7" opacity="1.000000" stroke="none" 
	d="
M252.030594,261.192810 
	C265.000031,261.194061 277.476807,261.132996 289.951569,261.263550 
	C291.809326,261.283020 294.201965,261.632812 295.424438,262.797943 
	C305.397369,272.303253 315.151001,282.038727 325.969330,292.686462 
	C323.171753,292.947083 321.814362,293.181305 320.456573,293.183502 
	C305.318970,293.207977 290.180054,293.290558 275.044922,293.093140 
	C272.785889,293.063690 269.946533,292.297729 268.393524,290.809967 
	C259.267548,282.067352 250.438950,273.014038 241.528854,264.046875 
	C240.985855,263.500397 240.603394,262.794403 239.444336,261.192627 
	C244.071655,261.192627 247.804459,261.192627 252.030594,261.192810 
z"/>
<path fill="#376AA8" opacity="1.000000" stroke="none" 
	d="
M136.186768,280.813416 
	C129.930984,274.505432 123.919113,268.453491 117.907242,262.401550 
	C118.084511,261.997650 118.261780,261.593750 118.439041,261.189850 
	C122.191719,261.189850 125.944405,261.190277 129.697083,261.189758 
	C141.171310,261.188141 152.647217,261.085205 164.118286,261.274811 
	C166.256744,261.310120 168.966125,261.904022 170.407806,263.286987 
	C179.644485,272.147491 188.606689,281.294342 197.634735,290.371307 
	C198.165176,290.904633 198.483475,291.648926 199.478470,293.190521 
	C194.414108,293.190521 190.184158,293.190521 185.954208,293.190521 
	C175.477722,293.190552 164.993362,292.954346 154.528458,293.302368 
	C150.103775,293.449524 146.935471,292.165985 144.137695,288.875519 
	C141.775635,286.097534 139.014923,283.658508 136.186768,280.813416 
z"/>
<path fill="#386BA8" opacity="1.000000" stroke="none" 
	d="
M221.832092,308.175812 
	C219.113388,305.074677 216.647629,302.227783 213.487411,298.579132 
	C216.609924,298.579132 218.827087,298.579102 221.044266,298.579132 
	C235.542831,298.579437 250.043701,298.450684 264.537598,298.711060 
	C266.869690,298.752960 269.691437,299.980621 271.398315,301.597900 
	C280.063263,309.808014 288.435364,318.327148 297.450836,327.274689 
	C295.964874,327.673309 295.395142,327.958893 294.824982,327.959808 
	C278.326874,327.986328 261.827972,328.054291 245.331619,327.884125 
	C243.589539,327.866180 241.524277,326.792786 240.185837,325.575012 
	C234.040070,319.983307 228.099335,314.166260 221.832092,308.175812 
z"/>
<path fill="#3669A7" opacity="1.000000" stroke="none" 
	d="
M153.324432,238.675537 
	C149.436996,235.040588 145.799576,231.655670 141.176331,227.353348 
	C143.915619,226.996262 145.105301,226.708145 146.295456,226.706161 
	C161.785004,226.680374 177.275055,226.642593 192.763657,226.769196 
	C194.609985,226.784286 196.970535,227.197952 198.207291,228.365112 
	C207.276810,236.924149 216.120575,245.722427 225.986084,255.375397 
	C223.398651,255.728058 222.235794,256.022308 221.072342,256.024628 
	C205.416260,256.056000 189.758850,256.140991 174.105499,255.932220 
	C172.067322,255.905029 169.630203,254.770065 168.100052,253.362915 
	C163.078888,248.745453 158.390640,243.765961 153.324432,238.675537 
z"/>
<path fill="#2C5388" opacity="1.000000" stroke="none" 
	d="
M416.564453,324.524811 
	C417.432861,325.539490 418.051208,326.293457 418.940979,327.378326 
	C418.053497,327.644623 417.489319,327.960876 416.924530,327.961945 
	C401.454041,327.991760 385.983307,328.023010 370.513306,327.932648 
	C369.193695,327.924957 367.528778,327.435150 366.616394,326.555328 
	C357.886139,318.136383 349.279572,309.589081 340.653229,301.062744 
	C340.093201,300.509247 339.662262,299.825134 338.765533,298.686615 
	C340.563354,298.546783 341.800354,298.368561 343.037628,298.366821 
	C357.343781,298.346710 371.653534,298.189148 385.952850,298.501587 
	C388.576538,298.558899 391.726196,299.948242 393.658905,301.761230 
	C401.418854,309.040314 408.795868,316.727631 416.564453,324.524811 
z"/>
<path fill="#3669A7" opacity="1.000000" stroke="none" 
	d="
M274.001831,240.594055 
	C278.514038,245.403687 283.026215,250.213333 288.024506,255.541092 
	C286.341400,255.766052 285.288513,256.027435 284.235107,256.029480 
	C268.587494,256.059387 252.939545,256.096405 237.292511,255.999115 
	C235.588852,255.988541 233.379669,255.687454 232.269943,254.621017 
	C223.176041,245.882019 214.287323,236.929504 204.582016,227.292847 
	C206.861603,226.999405 208.053421,226.714630 209.245758,226.712387 
	C224.726898,226.683090 240.211151,226.542526 255.686096,226.853683 
	C258.076202,226.901749 260.423676,229.068909 262.588074,230.733994 
	C262.242340,231.802292 262.099426,232.392654 261.956512,232.983032 
	C268.660828,233.370865 270.894257,237.861755 271.197144,244.379990 
	C272.496094,242.626572 273.248962,241.610321 274.001831,240.594055 
z"/>
<path fill="#386BA8" opacity="1.000000" stroke="none" 
	d="
M212.999786,327.988220 
	C204.172211,327.988434 195.836563,328.190765 187.522064,327.860626 
	C185.153931,327.766632 182.309219,326.698456 180.602859,325.096985 
	C171.902054,316.930939 163.502762,308.443665 153.960358,299.047058 
	C157.065018,298.814819 158.608871,298.602081 160.153152,298.598969 
	C173.976959,298.571014 187.801971,298.491302 201.623444,298.672028 
	C203.742203,298.699738 206.408737,299.388306 207.861557,300.776398 
	C216.286392,308.825928 224.427261,317.172821 232.648117,325.435120 
	C233.088104,325.877319 233.382416,326.464478 234.444199,327.988220 
	C226.915802,327.988220 220.207779,327.988220 212.999786,327.988220 
z"/>
<path fill="#3669A7" opacity="1.000000" stroke="none" 
	d="
M111.922462,255.860901 
	C102.248360,246.322739 92.977608,236.882828 82.962585,226.685059 
	C86.818649,226.685059 89.896957,226.684982 92.975266,226.685089 
	C105.300743,226.685501 117.627335,226.603745 129.950577,226.769943 
	C131.930618,226.796646 134.438843,227.362442 135.779221,228.644623 
	C144.199539,236.699295 152.364792,245.020920 160.588760,253.279785 
	C161.111191,253.804413 161.417969,254.543777 162.319046,255.959137 
	C145.128510,255.959137 128.727158,255.959137 111.922462,255.860901 
z"/>
<path fill="#3669A7" opacity="1.000000" stroke="none" 
	d="
M273.168396,227.160370 
	C287.805969,227.018127 302.443481,226.855942 317.081390,226.781998 
	C317.983063,226.777435 319.115875,227.238449 319.757599,227.871567 
	C328.838409,236.830643 337.852783,245.857056 347.612000,255.594315 
	C345.272217,255.816711 344.039093,256.033997 342.805664,256.035858 
	C328.821136,256.056702 314.832703,256.212311 300.855408,255.892380 
	C298.224091,255.832153 295.129120,254.412766 293.125336,252.632965 
	C287.286652,247.446838 281.892395,241.760330 276.105042,235.805847 
	C278.144867,234.490768 280.403564,233.639862 282.289337,232.929459 
	C279.116577,230.922668 276.142487,229.041519 273.168396,227.160370 
z"/>
<path fill="#376AA8" opacity="1.000000" stroke="none" 
	d="
M337.009064,292.975769 
	C335.203857,292.447784 332.870850,292.463745 331.677155,291.305511 
	C322.359406,282.264587 313.256226,273.002319 304.107574,263.787811 
	C303.671143,263.348236 303.430206,262.714569 302.657318,261.449707 
	C304.951843,261.342255 306.682251,261.193848 308.412933,261.191101 
	C319.900208,261.172760 331.415131,261.669403 342.865082,261.016418 
	C350.363617,260.588806 356.100739,262.560364 360.444244,268.916382 
	C352.554535,277.232086 344.781799,285.103943 337.009064,292.975769 
z"/>
<path fill="#295187" opacity="1.000000" stroke="none" 
	d="
M330.030609,298.742859 
	C333.732788,302.034393 337.504608,305.251465 341.121765,308.633881 
	C347.460815,314.561615 353.705048,320.590790 359.988983,326.577454 
	C359.663757,327.013336 359.338531,327.449188 359.013306,327.885071 
	C341.334045,327.885071 323.654755,327.885071 305.523010,327.461426 
	C306.687012,324.831818 308.124573,322.463562 309.952087,320.449066 
	C316.574158,313.149445 323.327057,305.968536 330.030609,298.742859 
z"/>
<path fill="#386BA8" opacity="1.000000" stroke="none" 
	d="
M329.654236,298.589478 
	C323.327057,305.968536 316.574158,313.149445 309.952087,320.449066 
	C308.124573,322.463562 306.687012,324.831818 305.063965,327.382629 
	C299.110321,321.766235 293.217957,315.749023 287.194977,309.865479 
	C283.764832,306.514740 280.121460,303.382355 276.574127,300.151611 
	C276.844055,299.579773 277.114014,299.007904 277.383942,298.436066 
	C294.681915,298.436066 311.979889,298.436066 329.654236,298.589478 
z"/>
<path fill="#2B5288" opacity="1.000000" stroke="none" 
	d="
M337.470459,293.062988 
	C344.781799,285.103943 352.554535,277.232086 360.609985,269.200134 
	C368.529388,276.808563 376.166046,284.577087 384.593628,293.150208 
	C368.384308,293.150208 353.158081,293.150208 337.470459,293.062988 
z"/>
<path fill="#F0F5F5" opacity="1.000000" stroke="none" 
	d="
M273.204834,226.802444 
	C276.142487,229.041519 279.116577,230.922668 282.289337,232.929459 
	C280.403564,233.639862 278.144867,234.490768 275.772583,235.705994 
	C275.074982,237.364609 274.490967,238.658920 273.954407,240.273636 
	C273.248962,241.610321 272.496094,242.626572 271.197144,244.379990 
	C270.894257,237.861755 268.660828,233.370865 261.956512,232.983032 
	C262.099426,232.392654 262.242340,231.802292 262.689789,231.087402 
	C265.113861,230.482635 267.233368,230.002396 269.833466,229.128571 
	C270.498810,228.430054 270.683594,228.125153 270.868347,227.820251 
	C270.861115,226.538635 270.853882,225.257004 270.860687,223.230804 
	C270.859222,222.247559 270.843658,222.008911 270.828125,221.770264 
	C270.828125,221.770264 270.764313,221.780441 271.120544,221.835617 
	C272.335541,222.246964 273.194275,222.603134 274.053040,222.959320 
	C273.782440,224.121048 273.511841,225.282776 273.204834,226.802444 
z"/>
<path fill="#D8EDF6" opacity="1.000000" stroke="none" 
	d="
M143.929016,294.733826 
	C142.176147,293.639862 140.292252,292.311523 138.687653,290.704376 
	C127.420296,279.419037 116.210503,268.076233 104.937057,256.414246 
	C108.832779,259.252899 113.028275,262.164337 116.663399,265.658722 
	C125.029587,273.701050 133.152588,281.998016 141.293274,290.271362 
	C142.408279,291.404510 143.060684,292.992798 143.929016,294.733826 
z"/>
<path fill="#88B4CD" opacity="1.000000" stroke="none" 
	d="
M366.911560,332.168884 
	C359.984528,332.642151 352.850494,332.926086 345.715729,332.946350 
	C333.736664,332.980377 321.757080,332.846588 309.327484,332.607758 
	C310.049774,331.983398 311.220428,331.149628 312.395142,331.143860 
	C329.560577,331.059601 346.726593,331.073700 363.892303,331.118896 
	C364.830261,331.121368 365.766968,331.602661 366.911560,332.168884 
z"/>
<path fill="#E9EADB" opacity="1.000000" stroke="none" 
	d="
M274.516052,222.975632 
	C273.194275,222.603134 272.335541,222.246964 271.122864,221.803391 
	C271.250702,221.096756 271.745941,219.927063 272.212311,219.938461 
	C285.282990,220.258163 298.350861,220.693863 311.418762,221.123810 
	C312.412720,221.156525 313.403442,221.287857 314.778595,221.548843 
	C313.311859,222.155045 311.465515,222.941299 309.612030,222.958466 
	C298.068604,223.065384 286.523590,223.000137 274.516052,222.975632 
z"/>
<path fill="#D8EDF6" opacity="1.000000" stroke="none" 
	d="
M178.879913,330.092224 
	C171.451080,323.130463 164.213348,315.942078 156.934021,308.414917 
	C160.359055,310.907837 164.079483,313.485626 167.229767,316.633942 
	C171.409821,320.811401 175.144806,325.434204 178.879913,330.092224 
z"/>
<path fill="#D8EDF6" opacity="1.000000" stroke="none" 
	d="
M270.589752,221.712463 
	C270.843658,222.008911 270.859222,222.247559 270.856018,222.846344 
	C261.535461,223.145218 252.233658,223.083939 242.463318,222.998413 
	C242.738266,222.652740 243.481735,222.331329 244.865662,222.012909 
	C246.310577,221.828522 247.115021,221.641144 247.919479,221.453751 
	C254.628769,221.396683 261.338074,221.339615 268.512054,221.222794 
	C269.434967,221.326904 269.893158,221.490768 270.589752,221.712463 
z"/>
<path fill="#D8EDF6" opacity="1.000000" stroke="none" 
	d="
M156.928650,307.743317 
	C152.607666,303.992645 148.288055,299.882690 143.920944,295.437744 
	C144.678574,295.188171 145.821182,294.960571 146.235962,295.407898 
	C149.874374,299.331543 153.382950,303.375641 156.928650,307.743317 
z"/>
<path fill="#D8EDF6" opacity="1.000000" stroke="none" 
	d="
M104.927200,255.737366 
	C101.295517,252.646042 97.660622,249.191925 93.974098,245.400238 
	C99.629616,246.323563 102.236137,250.892441 104.927200,255.737366 
z"/>
<path fill="#88B4CD" opacity="1.000000" stroke="none" 
	d="
M242.910706,332.139282 
	C239.003815,332.554474 234.886017,332.670654 230.322464,332.609894 
	C234.151077,332.235413 238.425446,332.037811 242.910706,332.139282 
z"/>
<path fill="#D8EDF6" opacity="1.000000" stroke="none" 
	d="
M83.958984,234.722870 
	C81.552856,232.946350 79.179764,230.795761 76.608139,228.346588 
	C80.712799,228.011353 82.900024,230.521088 83.958984,234.722870 
z"/>
<path fill="#D8EDF6" opacity="1.000000" stroke="none" 
	d="
M90.858154,240.881653 
	C88.586243,239.410156 86.317139,237.572220 83.981712,235.399292 
	C86.230583,236.881256 88.545776,238.698242 90.858154,240.881653 
z"/>
<path fill="#88B4CD" opacity="1.000000" stroke="none" 
	d="
M301.931946,332.175415 
	C299.658905,332.569092 297.197968,332.671783 294.306213,332.592407 
	C296.498260,332.235046 299.121185,332.059723 301.931946,332.175415 
z"/>
<path fill="#88ACB4" opacity="1.000000" stroke="none" 
	d="
M325.170532,227.229675 
	C326.764648,228.358490 328.482971,229.791946 330.137512,231.584961 
	C328.480713,230.474457 326.887726,229.004379 325.170532,227.229675 
z"/>
<path fill="#88ACB4" opacity="1.000000" stroke="none" 
	d="
M339.154175,241.242950 
	C340.631592,242.084778 342.211151,243.240906 343.726624,244.822021 
	C343.433746,245.494370 343.204987,245.741745 342.976227,245.989120 
	C341.736267,244.511826 340.496307,243.034546 339.154175,241.242950 
z"/>
<path fill="#D8EDF6" opacity="1.000000" stroke="none" 
	d="
M93.965858,244.706497 
	C92.745300,243.975433 91.553047,242.873627 90.548111,241.460175 
	C91.821678,242.210938 92.907921,243.273346 93.965858,244.706497 
z"/>
<path fill="#D8EDF6" opacity="1.000000" stroke="none" 
	d="
M71.854683,223.454987 
	C72.378654,222.847641 73.030983,222.535477 74.037628,222.122925 
	C74.599831,223.145233 74.807716,224.267944 74.966095,225.748154 
	C73.938736,225.320496 72.960892,224.535324 71.854683,223.454987 
z"/>
<path fill="#88ACB4" opacity="1.000000" stroke="none" 
	d="
M332.185425,234.231171 
	C333.294312,234.741638 334.532776,235.560074 335.894470,236.694733 
	C334.783508,236.187012 333.549225,235.363068 332.185425,234.231171 
z"/>
<path fill="#88ACB4" opacity="1.000000" stroke="none" 
	d="
M335.994263,237.317413 
	C336.485168,237.249283 336.981415,237.516266 337.726685,237.920471 
	C338.396790,238.811462 338.817902,239.565216 339.157898,240.636490 
	C338.051056,239.853500 337.025330,238.753006 335.994263,237.317413 
z"/>
<path fill="#88ACB4" opacity="1.000000" stroke="none" 
	d="
M330.164978,232.207977 
	C330.751526,232.374222 331.445831,232.817673 332.105072,233.600967 
	C331.470917,233.455597 330.871857,232.970398 330.164978,232.207977 
z"/>
<path fill="#D8EDF6" opacity="1.000000" stroke="none" 
	d="
M270.676544,227.882416 
	C270.683594,228.125153 270.498810,228.430054 270.083282,228.879608 
	C270.063263,228.664352 270.273987,228.304474 270.676544,227.882416 
z"/>
<path fill="#88B4CD" opacity="1.000000" stroke="none" 
	d="
M343.323761,246.025711 
	C343.204987,245.741745 343.433746,245.494370 343.883789,245.120667 
	C344.406677,245.109894 344.655670,245.295914 344.957245,245.763641 
	C344.598755,246.004028 344.135010,246.033173 343.323761,246.025711 
z"/>
<path fill="#88ACB4" opacity="1.000000" stroke="none" 
	d="
M324.206207,225.750488 
	C324.448303,225.739166 324.742401,226.034821 325.045837,226.647095 
	C324.789551,226.661621 324.523865,226.359543 324.206207,225.750488 
z"/>
<path fill="#D8EDF6" opacity="1.000000" stroke="none" 
	d="
M75.879608,227.276184 
	C75.666237,227.279327 75.343102,226.975769 74.976570,226.337860 
	C75.212067,226.325500 75.490952,226.647476 75.879608,227.276184 
z"/>
<path fill="#E9EADB" opacity="1.000000" stroke="none" 
	d="
M247.548660,221.345184 
	C247.115021,221.641144 246.310577,221.828522 245.182465,222.002945 
	C244.858810,221.989990 244.862198,221.658066 244.861435,221.493439 
	C245.633057,221.298096 246.405457,221.267365 247.548660,221.345184 
z"/>
<path fill="#34639E" opacity="1.000000" stroke="none" 
	d="
M218.213593,368.374878 
	C218.013336,368.071594 217.950974,367.659668 217.908173,367.457153 
	C225.458221,367.169342 233.050873,367.040619 240.643936,367.009338 
	C251.013443,366.966644 251.012161,366.998444 251.014343,356.390961 
	C251.015137,352.591705 251.024582,348.792419 251.399445,344.509766 
	C252.489883,344.048065 253.210968,344.069794 253.932053,344.091492 
	C253.951523,350.229401 254.125137,356.372192 253.931213,362.503357 
	C253.819183,366.046143 255.226166,367.245453 258.613586,367.036194 
	C261.753510,366.842224 264.914978,366.996582 268.534119,366.997559 
	C269.009033,367.191437 269.016785,367.385345 269.003998,367.870758 
	C262.894501,368.465668 256.804657,369.007050 250.716995,368.983521 
	C247.041000,368.969299 245.369812,370.099182 245.885147,374.241638 
	C245.160233,374.691040 244.446869,374.743622 243.381119,374.710785 
	C243.776047,369.916656 241.510925,368.571899 237.144257,368.973114 
	C232.104294,369.436157 227.032211,369.608093 221.969864,369.725281 
	C220.793243,369.752502 219.599625,369.046692 218.213593,368.374878 
z"/>
<path fill="#21396D" opacity="1.000000" stroke="none" 
	d="
M254.404877,344.062012 
	C253.210968,344.069794 252.489883,344.048065 251.408585,344.045227 
	C240.338684,344.040222 229.629013,344.016327 218.448639,343.984192 
	C215.750031,343.652893 213.525406,343.080261 211.293625,343.050934 
	C202.527222,342.935791 193.758575,342.991852 184.530045,342.962128 
	C185.653290,342.625000 187.237076,342.035492 188.821243,342.034576 
	C267.337067,341.988678 345.852936,341.991150 424.368805,342.010590 
	C425.677979,342.010925 426.987091,342.285004 428.613495,342.685150 
	C378.647339,342.961304 328.363892,342.977692 278.080505,343.023834 
	C275.602356,343.026123 273.124512,343.288483 270.338257,343.705627 
	C264.979218,343.998566 259.928467,344.015564 254.404877,344.062012 
z"/>
<path fill="#34639E" opacity="1.000000" stroke="none" 
	d="
M196.008148,368.482574 
	C196.402115,368.194092 196.879868,368.145721 197.715439,368.152100 
	C197.412811,368.378815 196.752380,368.550751 196.008148,368.482574 
z"/>
<path fill="#34639E" opacity="1.000000" stroke="none" 
	d="
M193.208862,368.877075 
	C193.117279,368.675659 193.303909,368.455078 193.796387,368.262573 
	C193.838806,368.438019 193.633743,368.627106 193.208862,368.877075 
z"/>
</svg>